<mxfile host="Electron" agent="Mozilla/5.0 (Windows NT 10.0; Win64; x64) AppleWebKit/537.36 (KHTML, like Gecko) draw.io/27.0.9 Chrome/134.0.6998.205 Electron/35.4.0 Safari/537.36" version="27.0.9">
  <diagram name="Complex Stack" id="0">
    <mxGraphModel dx="821" dy="529" grid="1" gridSize="10" guides="1" tooltips="1" connect="1" arrows="1" fold="1" page="1" pageScale="1" pageWidth="850" pageHeight="1100" math="0" shadow="0">
      <root>
        <mxCell id="0" />
        <mxCell id="1" parent="0" />
        <mxCell id="Flutter_App" value="Flutter App" style="swimlane;html=1;" parent="1" vertex="1">
          <mxGeometry x="20" y="20" width="280" height="200" as="geometry" />
        </mxCell>
        <mxCell id="Main" value="Main" style="rounded=0;whiteSpace=wrap;html=1;" parent="Flutter_App" vertex="1">
          <mxGeometry x="20" y="140" width="120" height="30" as="geometry" />
        </mxCell>
        <mxCell id="DogHumanMatchApp" value="DogHumanMatchApp" style="rounded=0;whiteSpace=wrap;html=1;" parent="Flutter_App" vertex="1">
          <mxGeometry x="30" y="40" width="120" height="30" as="geometry" />
        </mxCell>
        <mxCell id="Router" value="Router" style="rounded=0;whiteSpace=wrap;html=1;" parent="Flutter_App" vertex="1">
          <mxGeometry x="140" y="85" width="120" height="30" as="geometry" />
        </mxCell>
        <mxCell id="e4" style="orthogonalEdgeStyle;rounded=0;jettySize=auto;html=1;" parent="Flutter_App" source="DogHumanMatchApp" target="Router" edge="1">
          <mxGeometry relative="1" as="geometry" />
        </mxCell>
        <mxCell id="7dSLoJ5jd6KhHLcHLagt-1" value="" style="orthogonalEdgeStyle;rounded=0;jettySize=auto;html=1;" edge="1" parent="Flutter_App" source="Main" target="Router">
          <mxGeometry relative="1" as="geometry">
            <mxPoint x="94" y="50" as="sourcePoint" />
            <mxPoint x="566" y="560" as="targetPoint" />
          </mxGeometry>
        </mxCell>
        <mxCell id="UI_Screens" value="UI Screens" style="swimlane;html=1;" parent="1" vertex="1">
          <mxGeometry x="320" y="20" width="400" height="610" as="geometry" />
        </mxCell>
        <mxCell id="LoginScreen" value="LoginScreen" style="rounded=0;whiteSpace=wrap;html=1;" parent="UI_Screens" vertex="1">
          <mxGeometry x="30" y="80" width="120" height="30" as="geometry" />
        </mxCell>
        <mxCell id="DogListScreen" value="DogListScreen" style="rounded=0;whiteSpace=wrap;html=1;" parent="UI_Screens" vertex="1">
          <mxGeometry x="200" y="290" width="120" height="30" as="geometry" />
        </mxCell>
        <mxCell id="DogForm" value="DogForm" style="rounded=0;whiteSpace=wrap;html=1;" parent="UI_Screens" vertex="1">
          <mxGeometry x="90" y="170" width="120" height="30" as="geometry" />
        </mxCell>
        <mxCell id="HomePage" value="HomePage" style="rounded=0;whiteSpace=wrap;html=1;" parent="UI_Screens" vertex="1">
          <mxGeometry x="20" y="230" width="120" height="30" as="geometry" />
        </mxCell>
        <mxCell id="ContactPage" value="ContactPage" style="rounded=0;whiteSpace=wrap;html=1;" parent="UI_Screens" vertex="1">
          <mxGeometry x="20" y="300" width="120" height="30" as="geometry" />
        </mxCell>
        <mxCell id="UploadImageScreen" value="UploadImageScreen" style="rounded=0;whiteSpace=wrap;html=1;" parent="UI_Screens" vertex="1">
          <mxGeometry x="30" y="350" width="120" height="30" as="geometry" />
        </mxCell>
        <mxCell id="Business_Layer" value="Business Layer" style="swimlane;html=1;" parent="1" vertex="1">
          <mxGeometry x="20" y="240" width="280" height="180" as="geometry" />
        </mxCell>
        <mxCell id="DogProvider" value="DogProvider" style="rounded=0;whiteSpace=wrap;html=1;" parent="Business_Layer" vertex="1">
          <mxGeometry x="20" y="50" width="120" height="30" as="geometry" />
        </mxCell>
        <mxCell id="ContactController" value="ContactController" style="rounded=0;whiteSpace=wrap;html=1;" parent="Business_Layer" vertex="1">
          <mxGeometry x="40" y="120" width="120" height="30" as="geometry" />
        </mxCell>
        <mxCell id="LoginController" value="LoginController" style="rounded=0;whiteSpace=wrap;html=1;" parent="Business_Layer" vertex="1">
          <mxGeometry x="150" y="50" width="120" height="30" as="geometry" />
        </mxCell>
        <mxCell id="Data_Layer" value="Data Layer" style="swimlane;html=1;" parent="1" vertex="1">
          <mxGeometry x="70" y="470" width="400" height="220" as="geometry" />
        </mxCell>
        <mxCell id="DogService" value="DogService" style="rounded=0;whiteSpace=wrap;html=1;" parent="Data_Layer" vertex="1">
          <mxGeometry x="250" y="40" width="120" height="30" as="geometry" />
        </mxCell>
        <mxCell id="ContactRepository" value="ContactRepository" style="rounded=0;whiteSpace=wrap;html=1;" parent="Data_Layer" vertex="1">
          <mxGeometry x="10" y="30" width="120" height="30" as="geometry" />
        </mxCell>
        <mxCell id="SupabaseTables" value="SupabaseTables" style="rounded=0;whiteSpace=wrap;html=1;" parent="Data_Layer" vertex="1">
          <mxGeometry x="270" y="90" width="120" height="30" as="geometry" />
        </mxCell>
        <mxCell id="SupabaseStorage" value="SupabaseStorage" style="rounded=0;whiteSpace=wrap;html=1;" parent="Data_Layer" vertex="1">
          <mxGeometry x="40" y="180" width="120" height="30" as="geometry" />
        </mxCell>
        <mxCell id="ImageUploader" value="ImageUploader" style="rounded=0;whiteSpace=wrap;html=1;" parent="Data_Layer" vertex="1">
          <mxGeometry x="45" y="130" width="120" height="30" as="geometry" />
        </mxCell>
        <mxCell id="SupabaseClient" value="SupabaseClient" style="rounded=0;whiteSpace=wrap;html=1;" parent="Data_Layer" vertex="1">
          <mxGeometry x="190" y="140" width="120" height="30" as="geometry" />
        </mxCell>
        <mxCell id="SupabaseContacts" value="SupabaseContacts" style="rounded=0;whiteSpace=wrap;html=1;" parent="Data_Layer" vertex="1">
          <mxGeometry x="45" y="80" width="120" height="30" as="geometry" />
        </mxCell>
        <mxCell id="e24" style="orthogonalEdgeStyle;rounded=0;jettySize=auto;html=1;" parent="Data_Layer" source="ContactRepository" target="SupabaseContacts" edge="1">
          <mxGeometry relative="1" as="geometry" />
        </mxCell>
        <mxCell id="e19" style="orthogonalEdgeStyle;rounded=0;jettySize=auto;html=1;" parent="Data_Layer" source="SupabaseContacts" target="ImageUploader" edge="1">
          <mxGeometry relative="1" as="geometry" />
        </mxCell>
        <mxCell id="Models" value="Models" style="swimlane;html=1;" parent="1" vertex="1">
          <mxGeometry x="510" y="440" width="220" height="140" as="geometry" />
        </mxCell>
        <mxCell id="DogProfile" value="DogProfile" style="rounded=0;whiteSpace=wrap;html=1;" parent="Models" vertex="1">
          <mxGeometry x="40" y="70" width="120" height="30" as="geometry" />
        </mxCell>
        <mxCell id="e1" style="orthogonalEdgeStyle;rounded=0;jettySize=auto;html=1;" parent="1" source="Router" target="SupabaseClient" edge="1">
          <mxGeometry relative="1" as="geometry" />
        </mxCell>
        <mxCell id="e2" style="orthogonalEdgeStyle;rounded=0;jettySize=auto;html=1;" parent="1" source="Main" target="DogProvider" edge="1">
          <mxGeometry relative="1" as="geometry" />
        </mxCell>
        <mxCell id="e3" style="orthogonalEdgeStyle;rounded=0;jettySize=auto;html=1;" parent="1" source="Main" target="DogHumanMatchApp" edge="1">
          <mxGeometry relative="1" as="geometry" />
        </mxCell>
        <mxCell id="e5" style="orthogonalEdgeStyle;rounded=0;jettySize=auto;html=1;" parent="1" source="Router" target="LoginScreen" edge="1">
          <mxGeometry relative="1" as="geometry" />
        </mxCell>
        <mxCell id="e7" style="orthogonalEdgeStyle;rounded=0;jettySize=auto;html=1;" parent="1" source="Router" target="HomePage" edge="1">
          <mxGeometry relative="1" as="geometry" />
        </mxCell>
        <mxCell id="e9" style="orthogonalEdgeStyle;rounded=0;jettySize=auto;html=1;" parent="1" source="LoginScreen" target="LoginController" edge="1">
          <mxGeometry relative="1" as="geometry" />
        </mxCell>
        <mxCell id="e11" style="orthogonalEdgeStyle;rounded=0;jettySize=auto;html=1;" parent="1" source="DogListScreen" target="DogService" edge="1">
          <mxGeometry relative="1" as="geometry" />
        </mxCell>
        <mxCell id="e12" style="orthogonalEdgeStyle;rounded=0;jettySize=auto;html=1;" parent="1" source="DogListScreen" target="DogForm" edge="1">
          <mxGeometry relative="1" as="geometry" />
        </mxCell>
        <mxCell id="e13" style="orthogonalEdgeStyle;rounded=0;jettySize=auto;html=1;" parent="1" source="DogForm" target="DogProvider" edge="1">
          <mxGeometry relative="1" as="geometry" />
        </mxCell>
        <mxCell id="e18" style="orthogonalEdgeStyle;rounded=0;jettySize=auto;html=1;" parent="1" source="ContactPage" target="ContactController" edge="1">
          <mxGeometry relative="1" as="geometry" />
        </mxCell>
        <mxCell id="e20" style="orthogonalEdgeStyle;rounded=0;jettySize=auto;html=1;" parent="1" source="DogProvider" target="DogService" edge="1">
          <mxGeometry relative="1" as="geometry" />
        </mxCell>
        <mxCell id="e21" style="orthogonalEdgeStyle;rounded=0;jettySize=auto;html=1;" parent="1" source="ContactController" target="ContactRepository" edge="1">
          <mxGeometry relative="1" as="geometry" />
        </mxCell>
        <mxCell id="e22" style="orthogonalEdgeStyle;rounded=0;jettySize=auto;html=1;" parent="1" source="LoginController" target="DogService" edge="1">
          <mxGeometry relative="1" as="geometry" />
        </mxCell>
        <mxCell id="e23" style="orthogonalEdgeStyle;rounded=0;jettySize=auto;html=1;" parent="1" source="DogService" target="SupabaseTables" edge="1">
          <mxGeometry relative="1" as="geometry" />
        </mxCell>
        <mxCell id="e25" style="orthogonalEdgeStyle;rounded=0;jettySize=auto;html=1;" parent="1" source="ImageUploader" target="SupabaseStorage" edge="1">
          <mxGeometry relative="1" as="geometry" />
        </mxCell>
        <mxCell id="e26" style="orthogonalEdgeStyle;rounded=0;jettySize=auto;html=1;" parent="1" source="DogService" target="DogProfile" edge="1">
          <mxGeometry relative="1" as="geometry" />
        </mxCell>
        <mxCell id="7dSLoJ5jd6KhHLcHLagt-3" value="" style="orthogonalEdgeStyle;rounded=0;jettySize=auto;html=1;" edge="1" parent="1" source="UploadImageScreen" target="SupabaseContacts">
          <mxGeometry relative="1" as="geometry">
            <mxPoint x="586" y="170" as="sourcePoint" />
            <mxPoint x="189" y="590" as="targetPoint" />
          </mxGeometry>
        </mxCell>
      </root>
    </mxGraphModel>
  </diagram>
</mxfile>
